<svg width="85" height="67" viewBox="0 0 85 67" fill="none" xmlns="http://www.w3.org/2000/svg">
<rect x="1.5" y="1.5" width="82" height="64" rx="3.5" stroke="#F9F9F9" stroke-opacity="0.3" stroke-width="3"/>
<path d="M38.22 46.36C34.764 46.36 32.052 45.388 30.084 43.444C28.14 41.5 27.168 38.692 27.168 35.02V20.8H31.848V34.84C31.848 37.432 32.4 39.316 33.504 40.492C34.632 41.668 36.216 42.256 38.256 42.256C40.296 42.256 41.868 41.668 42.972 40.492C44.076 39.316 44.628 37.432 44.628 34.84V20.8H49.236V35.02C49.236 38.692 48.252 41.5 46.284 43.444C44.34 45.388 41.652 46.36 38.22 46.36Z" fill="#F9F9F9"/>
<path d="M56.517 46.252C55.701 46.252 55.005 45.976 54.429 45.424C53.853 44.848 53.565 44.128 53.565 43.264C53.565 42.352 53.853 41.632 54.429 41.104C55.005 40.552 55.701 40.276 56.517 40.276C57.333 40.276 58.029 40.552 58.605 41.104C59.181 41.632 59.469 42.352 59.469 43.264C59.469 44.128 59.181 44.848 58.605 45.424C58.029 45.976 57.333 46.252 56.517 46.252Z" fill="#D7B065"/>
</svg>
